<?xml version="1.0" standalone="no"?>
<!DOCTYPE svg PUBLIC "-//W3C//DTD SVG 20010904//EN"
 "http://www.w3.org/TR/2001/REC-SVG-20010904/DTD/svg10.dtd">
<svg version="1.0" xmlns="http://www.w3.org/2000/svg"
 width="512.000000pt" height="512.000000pt" viewBox="0 0 512.000000 512.000000"
 preserveAspectRatio="xMidYMid meet">
<metadata>
Created by potrace 1.16, written by Peter Selinger 2001-2019
</metadata>
<g transform="translate(0.000000,512.000000) scale(0.100000,-0.100000)"
fill="#000000" stroke="none">
<path d="M2565 4051 c-129 -24 -169 -38 -345 -121 -80 -37 -194 -91 -255 -120
-184 -86 -310 -176 -445 -316 -172 -178 -255 -341 -315 -614 -15 -69 -34 -133
-43 -142 -8 -10 -28 -18 -43 -18 -42 0 -79 -38 -86 -87 -7 -56 30 -137 99
-209 42 -44 49 -57 38 -64 -8 -6 -18 -10 -22 -10 -17 0 -38 -35 -38 -63 0 -45
21 -71 96 -118 53 -34 75 -57 126 -132 86 -126 277 -316 398 -396 112 -75 236
-138 343 -176 84 -30 111 -55 122 -115 8 -48 -17 -114 -65 -172 -67 -78 -57
-85 93 -63 221 32 357 74 552 173 452 227 736 529 920 977 20 50 41 94 46 100
13 14 49 -26 159 -173 52 -70 103 -128 113 -130 23 -5 23 33 -4 178 -44 243
-15 347 135 486 78 72 80 75 61 90 -28 22 -163 12 -283 -21 -51 -14 -99 -25
-105 -25 -7 0 -32 44 -57 98 -145 313 -364 575 -667 800 -111 82 -140 121
-124 165 12 31 80 89 151 129 63 36 74 48 57 65 -27 26 -100 35 -302 39 -174
3 -227 0 -310 -15z m40 -121 c-21 -10 -233 -93 -250 -98 -5 -2 5 7 24 19 31
21 214 89 236 88 6 0 1 -4 -10 -9z m350 5 c-5 -2 -61 -11 -123 -20 -63 -9
-170 -33 -240 -55 -133 -41 -168 -45 -86 -10 68 30 224 69 314 79 78 9 152 12
135 6z m-720 -119 c-62 -73 -168 -160 -273 -224 -48 -30 -118 -77 -157 -104
-72 -53 -207 -169 -202 -175 2 -1 54 31 116 72 123 81 313 182 418 221 258 97
548 115 780 48 129 -37 198 -83 355 -232 176 -168 294 -328 408 -556 57 -113
92 -172 105 -176 13 -5 50 1 95 16 93 30 104 30 60 2 l-35 -22 35 -6 35 -5
-32 -14 c-18 -7 -38 -19 -44 -27 -9 -11 -7 -14 10 -14 29 0 26 -18 -4 -26 -31
-8 -32 -27 -2 -42 21 -10 20 -11 -10 -11 -39 -1 -40 -7 -10 -39 l22 -25 -27 7
c-33 8 -35 -2 -13 -64 23 -65 18 -69 -23 -23 -55 62 -107 93 -156 93 -77 0
-134 -44 -396 -309 -143 -144 -271 -264 -308 -288 -88 -58 -164 -86 -239 -86
-78 1 -119 23 -153 84 -22 39 -25 56 -25 144 0 88 4 107 28 159 83 179 255
265 358 179 52 -44 74 -98 74 -185 0 -69 -3 -80 -30 -120 -82 -117 -232 -152
-323 -75 l-37 31 30 -33 c37 -42 81 -61 138 -61 99 0 189 57 233 146 24 49 26
62 22 142 -5 98 -26 156 -77 214 -17 20 -31 38 -31 42 0 12 121 6 154 -8 18
-7 48 -28 68 -45 57 -49 76 -35 42 32 -46 90 -123 150 -250 193 -318 106 -655
-48 -810 -372 -56 -116 -81 -247 -67 -353 5 -39 7 -71 3 -71 -16 0 -177 63
-233 91 -107 54 -238 150 -334 246 -51 51 -93 89 -93 86 0 -22 76 -129 130
-183 114 -114 283 -204 464 -246 50 -12 80 -24 83 -34 17 -54 73 -151 124
-215 33 -41 55 -75 50 -75 -22 0 -222 70 -270 95 -210 106 -450 303 -596 490
-78 99 -97 117 -164 154 l-54 29 33 17 c76 39 264 115 275 111 7 -2 21 -23 33
-46 l20 -42 21 21 c72 72 -46 201 -183 201 l-49 0 44 -29 c24 -17 55 -41 68
-55 l24 -26 -44 0 c-97 0 -261 66 -300 121 -33 45 -29 59 26 77 63 21 75 45
110 208 45 216 105 360 205 493 109 144 276 282 447 371 48 24 336 155 351
159 2 1 -17 -23 -43 -53z m563 -67 c46 -10 91 -23 100 -29 23 -13 11 -12 -83
5 -96 17 -264 19 -372 4 -67 -9 -256 -53 -318 -74 -11 -3 -7 1 9 10 64 37 250
90 369 104 91 11 189 5 295 -20z m-192 -1259 c-75 -71 -117 -132 -158 -233
-16 -39 -26 -58 -23 -42 9 47 61 152 102 207 30 42 124 128 139 128 3 0 -24
-27 -60 -60z m-229 -282 c-3 -8 -6 -5 -6 6 -1 11 2 17 5 13 3 -3 4 -12 1 -19z
m1114 -5 c-12 -20 -14 -14 -5 12 4 9 9 14 11 11 3 -2 0 -13 -6 -23z m-1127
-91 c-12 -142 24 -268 98 -341 105 -105 290 -105 506 0 85 41 119 65 187 130
46 44 100 106 121 137 52 78 62 86 29 26 -69 -130 -192 -246 -340 -319 -181
-90 -368 -111 -467 -52 -85 49 -131 124 -149 239 -10 67 -8 153 8 228 10 54
14 32 7 -48z m53 46 c-3 -8 -6 -5 -6 6 -1 11 2 17 5 13 3 -3 4 -12 1 -19z
m1029 -54 c-141 -279 -391 -479 -692 -554 -128 -32 -267 -26 -343 15 -66 36
-123 100 -161 180 -45 94 -60 174 -58 310 l1 120 8 -130 c11 -201 66 -339 167
-422 88 -71 183 -88 340 -58 306 58 574 259 729 545 47 89 55 84 9 -6z m-906
-761 c-58 -19 -250 -30 -250 -14 0 7 34 11 103 12 56 1 116 5 132 9 52 13 62
9 15 -7z m118 -39 c-35 -18 -222 -80 -268 -88 -19 -3 35 18 120 47 167 58 190
64 148 41z"/>
<path d="M2460 3596 c-220 -29 -385 -78 -567 -167 -109 -54 -164 -96 -71 -55
155 69 374 130 580 163 225 35 541 19 723 -38 70 -22 82 -18 28 9 -165 83
-451 119 -693 88z"/>
<path d="M2575 3366 c-156 -30 -273 -69 -404 -133 l-73 -36 -35 39 -34 39 25
-40 c14 -22 26 -42 26 -46 0 -3 -30 -26 -67 -52 -38 -25 -90 -69 -118 -97
l-50 -51 90 56 c50 31 111 68 137 81 l47 24 42 -48 c45 -50 44 -40 -2 19 l-29
36 108 41 c126 48 221 75 352 98 128 23 382 23 508 0 102 -18 249 -65 291 -92
25 -17 25 -17 12 0 -25 30 -207 115 -304 142 -80 23 -116 27 -272 30 -124 2
-202 -1 -250 -10z"/>
<path d="M1503 3161 c-32 -20 -53 -49 -53 -72 0 -7 13 0 29 15 58 56 149 52
212 -10 21 -21 39 -35 39 -31 0 17 -29 63 -54 86 -37 35 -127 41 -173 12z"/>
<path d="M1525 3100 c-65 -27 -102 -118 -72 -176 30 -57 63 -79 122 -79 58 0
92 22 121 77 53 102 -63 223 -171 178z m77 -67 c10 -9 18 -21 18 -26 0 -15
-31 -47 -46 -47 -17 0 -44 28 -44 45 0 16 27 45 42 45 6 0 20 -7 30 -17z"/>
<path d="M2125 3026 c46 -103 57 -171 52 -301 -5 -134 -28 -213 -94 -328 -35
-59 -164 -199 -228 -246 l-30 -22 35 17 c59 29 133 89 199 160 174 190 207
464 85 706 -41 81 -53 90 -19 14z"/>
<path d="M2930 3001 c-106 -34 -197 -92 -268 -170 -41 -45 -86 -110 -81 -116
11 -11 47 9 62 34 9 15 50 59 90 98 87 83 187 137 292 157 l70 14 -55 1 c-30
0 -80 -8 -110 -18z"/>
<path d="M2225 2923 c46 -92 58 -159 53 -286 -4 -114 3 -120 21 -20 14 75 6
147 -24 229 -20 53 -71 144 -81 144 -2 0 12 -30 31 -67z"/>
<path d="M2999 2976 c-62 -18 -137 -59 -206 -115 -56 -46 -120 -117 -112 -125
2 -2 55 -6 117 -8 98 -3 113 -1 117 13 25 78 130 147 256 170 71 13 72 13 49
31 -26 21 -113 48 -149 47 -14 0 -47 -7 -72 -13z"/>
<path d="M2517 2787 c-32 -17 -80 -54 -107 -84 -44 -48 -47 -55 -37 -77 l12
-24 38 34 c21 19 48 39 60 45 19 9 102 127 95 135 -2 1 -29 -11 -61 -29z"/>
<path d="M1870 2779 c15 -50 12 -179 -5 -234 -20 -68 -11 -68 14 0 23 62 28
161 10 216 -16 46 -31 61 -19 18z"/>
<path d="M2211 2433 c-10 -26 -10 -27 4 -9 8 11 15 23 15 28 0 15 -7 8 -19
-19z"/>
<path d="M2448 1053 c34 -2 90 -2 125 0 34 2 6 3 -63 3 -69 0 -97 -1 -62 -3z"/>
</g>
</svg>